<?xml version="1.0" encoding="UTF-8" standalone="no"?>
<!-- Svg Vector Icons : http://www.onlinewebfonts.com/icon -->

<svg
   xmlns:dc="http://purl.org/dc/elements/1.1/"
   xmlns:cc="http://creativecommons.org/ns#"
   xmlns:rdf="http://www.w3.org/1999/02/22-rdf-syntax-ns#"
   xmlns:svg="http://www.w3.org/2000/svg"
   xmlns="http://www.w3.org/2000/svg"
   xmlns:sodipodi="http://sodipodi.sourceforge.net/DTD/sodipodi-0.dtd"
   xmlns:inkscape="http://www.inkscape.org/namespaces/inkscape"
   version="1.1"
   x="0px"
   y="0px"
   viewBox="0 0 48 48"
   enable-background="new 0 0 1000 1000"
   xml:space="preserve"
   id="svg16"
   sodipodi:docname="logo.svg"
   width="48"
   height="48"
   inkscape:version="0.92.2 (5c3e80d, 2017-08-06)"><defs
     id="defs20" /><sodipodi:namedview
     pagecolor="#ffffff"
     bordercolor="#666666"
     borderopacity="1"
     objecttolerance="10"
     gridtolerance="10"
     guidetolerance="10"
     inkscape:pageopacity="0"
     inkscape:pageshadow="2"
     inkscape:window-width="1366"
     inkscape:window-height="705"
     id="namedview18"
     showgrid="false"
     units="px"
     width="50in"
     inkscape:zoom="2.56"
     inkscape:cx="70.590109"
     inkscape:cy="-14.032428"
     inkscape:window-x="-8"
     inkscape:window-y="-8"
     inkscape:window-maximized="1"
     inkscape:current-layer="svg16" /><metadata
     id="metadata2"> Svg Vector Icons : http://www.onlinewebfonts.com/icon <rdf:RDF><cc:Work
     rdf:about=""><dc:format>image/svg+xml</dc:format><dc:type
       rdf:resource="http://purl.org/dc/dcmitype/StillImage" /><dc:title></dc:title></cc:Work></rdf:RDF></metadata><g
     id="g14"
     transform="matrix(0.04864972,0,0,0.04864972,-0.25212219,0.1922022)"><g
       transform="matrix(0.1,0,0,-0.1,0,511)"
       id="g12"><path
         d="M 6349.4,4800.9 C 6282.8,4311 5800.9,3834.3 4999.4,3464.2 4533.4,3248.5 4389.6,3168.6 4179.3,3011.5 3622.8,2588.1 3292.6,1967.7 3226,1214.2 l -16,-207.7 h 687 689.6 l -8,284.9 c -10.7,322.2 26.6,617.7 106.5,828.1 74.6,199.7 295.6,426 705.6,718.9 612.4,436.7 942.6,766.9 1046.4,1035.8 101.2,268.9 87.9,673.7 -32,966.6 l -39.9,93.2 z"
         id="path4"
         inkscape:connector-curvature="0" /><path
         d="m 7012.4,2779.9 c -39.9,-135.8 -77.2,-189.1 -237,-348.8 -149.1,-146.5 -252.9,-221 -468.7,-330.2 -479.3,-245 -615.1,-426 -636.4,-860.1 l -10.7,-234.3 h 681.7 684.3 l -85.2,125.2 c -170.4,247.6 -223.7,500.6 -146.4,681.7 18.6,47.9 90.5,149.1 157.1,223.7 162.4,189 215.7,335.5 199.7,548.5 -8,90.5 -32,207.7 -53.3,258.3 l -39.9,93.2 z"
         id="path6"
         inkscape:connector-curvature="0" /><path
         d="m 2137,561.8 c 5.3,-85.2 18.6,-308.9 26.6,-497.9 37.3,-860.1 245,-1901.2 508.6,-2540.2 221,-535.2 521.9,-918.7 838.8,-1070.4 l 170.4,-79.9 H 5042 6400 l 141.1,71.9 c 282.2,138.5 532.5,460.6 748.2,958.6 90.5,213 109.2,237 189,258.3 612.4,154.4 979.9,316.9 1275.5,556.5 359.5,292.9 577.8,737.6 553.8,1131.7 -37.3,636.4 -599.1,1027.8 -1254.1,873.4 -101.2,-24 -189.1,-42.6 -197.1,-42.6 -5.3,0 -8,119.8 -2.6,266.3 l 8,266.3 H 4994.1 2123.7 Z M 8487.6,-418 c 175.7,-90.5 234.3,-319.5 135.8,-535.2 -69.2,-154.5 -189,-279.6 -386.1,-407.4 -162.4,-106.5 -599.1,-308.9 -620.4,-287.6 -5.3,8 21.3,178.4 58.6,380.8 37.3,205 77.2,439.3 85.2,527.2 13.3,127.8 32,170.4 103.8,242.3 47.9,47.9 133.1,98.5 189.1,114.5 127.8,37.2 327.5,21.3 434,-34.6 z"
         id="path8"
         inkscape:connector-curvature="0" /><path
         d="m 100,-3959.5 c 0,-74.6 186.4,-245 370.1,-343.5 229,-119.8 583.1,-237 998.5,-327.5 l 322.2,-71.9 3048.8,-8 c 2697.3,-8 3080.8,-5.3 3328.4,32 769.5,119.8 1451.2,362.1 1650.9,591.1 162.4,183.7 591.1,167.7 -4819.5,167.7 -4332.2,0 -4899.4,-5.3 -4899.4,-39.9 z"
         id="path10"
         inkscape:connector-curvature="0" /></g></g></svg>